<?xml version="1.0" encoding="utf-8" ?>
<svg xmlns="http://www.w3.org/2000/svg" xmlns:xlink="http://www.w3.org/1999/xlink" width="1041" height="521">
	<path fill="#10B981" transform="scale(1.0167 1.0167)" d="M837.694 210.012C845.362 209.403 886.254 210.704 891.23 215.581C895.004 219.279 897.006 240.459 898.1 246.149L922.527 373.635C924.668 384.308 932.627 405.821 912.437 398.072C868.693 381.285 824.158 373.883 777.588 373.994C778.44 377.893 773.485 389.452 770.912 392.416C765.668 393.915 738.374 393.426 732.005 392.755C727.18 389.912 727.877 378.463 723.91 373.994C688.072 370.061 633.677 381.617 600.919 394.81C558.45 411.915 585.819 376.206 579.526 350.337C585.585 350.775 591.454 351.295 597.491 350.337C599.265 353.769 597.251 372.597 595.613 376.199C600.111 375.131 604.862 373.164 609.099 371.299C655.088 359.889 675.938 356.471 725.862 359.75C725.528 359.245 725.175 358.831 724.681 358.479C690.666 334.285 649.842 335.907 611.236 342.469C616.771 338.661 619.927 330.216 616.252 324.081C655.178 319.101 696.41 324.303 729.81 346.275C732.82 348.255 741.741 354.255 742.468 357.792C744.39 354.34 743.135 257.344 741.213 253.876C739.327 244.716 709.914 237.072 701.213 231.651C701.398 228.863 701.911 216.965 701.213 214.823C712.028 216.515 743.863 231.998 746.881 239.553C752.214 237.284 756.947 233.107 762.192 230.482C786.267 218.434 810.51 210.108 837.694 210.012ZM752.398 253.876C754.897 259.596 755.058 357.074 754.694 357.792C759.998 354.547 766.34 346.954 773.442 342.42C777.716 339.692 789.633 335.645 792.097 333.511C819.057 326.741 838.224 323.535 866.893 323.952C877.368 324.104 887.878 325.441 898.339 325.252C899.569 320.817 882.817 231.858 880.163 228.012C868.407 224.917 849.856 225.471 837.694 225.915C810.29 230.369 793.708 231.945 767.202 244.958C761.938 247.543 757.503 251.368 752.398 253.876ZM767.176 364.749C760.314 374.582 754.917 376.589 743.517 376.199C741.484 373.277 737.474 370.226 734.884 367.576C734.515 368.97 735.35 369.894 735.098 371.299C736.643 373.054 738.578 377.378 737.653 379.757C745.802 379.806 754.617 380.569 762.706 379.757C764.212 378.106 768.967 366.38 767.176 364.749ZM905.715 376.199C907.252 373.438 903.039 349.864 900.159 346.865C884.794 339.256 859.918 337.109 843.127 338.447C812.337 339.092 797.314 346.62 771.877 359.75C797.695 359.394 822.899 356.142 848.615 361.736C856.053 362.651 900.879 372.452 905.715 376.199Z"/>
	<path fill="#10B981" transform="scale(1.0167 1.0167)" d="M559.577 212.176C603.971 203.31 602.558 238.024 602.503 269.169C602.472 286.2 602.231 303.273 602.396 320.3C602.468 327.773 608.938 342.183 588.284 339.623C578.611 338.424 580.783 333.84 575.828 328.06C570.689 338.168 556.238 342.605 545.802 341.528C527.765 339.666 528.993 328.823 521.514 320.285C522.204 317.994 521.679 314.691 521.633 312.256C520.931 275.3 541.947 264.976 575.828 259.315C578.671 251.728 576.437 221.595 558.084 230.122C545.177 236.118 553.837 245.393 549.973 253.876C545.851 253.941 523.883 256.144 523.734 251.51C523.052 230.223 537.657 212.529 559.577 212.176ZM553.36 320.285C578.223 333.853 576.923 286.411 575.666 274.299C574.679 273.825 573.981 274.039 572.939 274.246C563.885 278.448 553.9 281.205 550.099 291.699C544.422 307.373 552.117 311.537 553.36 320.285Z"/>
	<path fill="#10B981" transform="scale(1.0167 1.0167)" d="M103.929 170.435C111.344 170.336 171.347 169.574 173.829 171.181C176.543 172.937 175.62 188.334 174.417 190.231C171.323 193.282 160.247 191.614 156.164 191.609L126.608 191.555L126.608 242.755C134.177 242.99 166.184 241.456 170.568 244.069C173.084 247.716 172.51 260.14 169.781 262.785C167.642 264.858 132.492 263.892 126.608 263.877L126.608 295.497L126.608 316.477C133.245 316.479 170.22 315.294 173.294 317.812C177.169 320.986 176.618 333.987 173.846 337.069C170.446 340.848 137.41 338.376 131.039 338.365C98.3555 338.306 98.3672 344.803 98.3643 313.123L98.3878 176.727C99.8419 173.898 101.285 172.239 103.929 170.435Z"/>
	<path fill="#10B981" transform="scale(1.0167 1.0167)" d="M477.358 212.176C507.895 208.485 508.493 237.809 508.477 259.478L508.497 319.239C508.513 322.623 509.941 335.14 507.165 337.486C503.357 337.745 483.058 339.211 480.807 336.233C479.429 334.411 481.644 252.883 480.44 241.869C478.97 228.416 461.39 235.927 455.169 241.003C452.184 244.123 454.056 328.691 453.946 337.464C450.136 337.654 429.174 338.808 426.623 336.053C425.799 332.555 425.379 221.949 426.281 216.677C429.658 214.505 446.596 215.05 451.66 214.823C451.527 218.531 451.356 222.212 451.66 225.915C459.134 218.201 466.712 213.988 477.358 212.176Z"/>
	<path fill="#10B981" transform="scale(1.0167 1.0167)" d="M239.282 212.176C257.506 212.383 267.967 221.392 269.177 240.493C269.933 252.434 270.715 330.986 268.147 336.5C266.836 337.594 244.293 339.144 242.768 335.91C241.158 332.497 242.098 322.537 242.105 318.322L242.165 269.564C242.173 261.173 242.783 252.227 241.874 243.899C240.262 229.136 224.092 233.982 216.244 241.003C212.271 245.428 214.438 262.368 214.445 268.367L214.545 315.308C214.562 320.79 215.665 331.618 213.769 336.613C210.658 338.851 190.422 338.174 188.486 336.583C187.407 333.546 185.713 222.605 188.638 215.728C190.988 212.995 197.027 214.806 200.093 214.863C210.604 215.058 213.667 211.233 214.492 224.144C221.99 217.448 229.35 213.874 239.282 212.176Z"/>
	<path fill="#10B981" transform="scale(1.0167 1.0167)" d="M318.323 212.176C340.098 210.319 368.85 226.15 361.72 248.072C359.097 250.508 342.137 250.228 338.356 249.16C336.371 248.599 328.005 217.582 312.658 236.854C307.177 268.153 365.512 264.816 365.621 301.088C365.693 324.952 347.035 340.471 324.067 340.454C299.176 341.422 276.744 315.332 285.206 297.248C288.174 294.171 304.06 294.689 306.603 296.553C309.13 298.405 309.024 311.61 315.91 317.143C326.091 325.324 339.577 318.617 337.76 305.666C334.773 284.366 290.981 282.633 286.734 251.354C283.77 229.525 297.243 214.828 318.323 212.176Z"/>
	<path fill="#10B981" transform="scale(1.0167 1.0167)" d="M377.958 214.823C386.656 214.266 396.227 214.281 404.913 214.823L404.893 303.196C404.893 312.194 406.317 329.324 404.913 337.464C401.002 338.178 381.221 338.087 378.139 336.312C377.049 321.998 377.945 306.938 377.949 292.551L377.958 214.823Z"/>
	<path fill="#10B981" transform="scale(1.0167 1.0167)" d="M827.937 109.75C842.994 107.01 839.74 121.403 839.894 131.657C839.958 135.987 841.446 141.271 839.993 145.427C847.224 145.434 871.42 143.548 876.328 147.814C881.961 152.71 877.041 159.189 871.261 160.3C864.392 161.619 847.765 160.566 839.993 160.518C840.799 162 844.245 196.805 834.488 200.25C816.959 206.419 826.969 167.774 824.062 160.518C816.631 160.539 799.174 161.549 792.97 160.44C787.23 159.414 782.478 153.135 787.62 148.084C793.581 142.229 816.145 145.381 824.062 145.427C825.028 143.51 824.504 117.658 824.062 114.371C825.49 112.96 826.696 111.325 827.937 109.75Z"/>
	<path fill="#10B981" transform="scale(1.0167 1.0167)" d="M664.475 214.823C670.271 213.852 679.914 215.885 685.922 216.6C687.22 219.897 684.581 238.299 682.754 241.003C691.318 241.447 699.322 243.882 707.956 242.755C709.319 247.247 708.348 259.849 706.024 263.877C697.653 262.809 689.213 261.691 680.794 261.122C682.762 264.934 680.33 281.639 678.292 285.255C679.716 289.905 661.113 285.543 657.296 285.255C659.212 281.772 661.622 261.928 660.352 259.315C654.864 255.926 643.166 255.78 636.684 255.427C638.364 251.888 640.184 239.779 638.377 236.854C646.602 236.287 654.502 236.501 662.265 239.553C664.444 235.78 665.808 218.727 664.475 214.823Z"/>
	<path fill="#10B981" transform="scale(1.0167 1.0167)" d="M388.797 169.706C397.234 167.918 405.525 173.303 407.323 181.738C409.121 190.173 403.747 198.471 395.314 200.28C386.866 202.091 378.551 196.705 376.749 188.255C374.948 179.805 380.344 171.496 388.797 169.706Z"/>
	<path fill="#10B981" transform="scale(1.0167 1.0167)" d="M641.892 210.012C644.727 209.792 647.405 209.802 650.24 210.012C651.669 212.52 651.43 221.757 650.24 224.144C642.43 222.312 635.052 223.903 627.478 225.915C628.485 227.742 628.139 229.769 627.478 231.651C627.761 234.338 626.806 235.428 624.039 235.443C620.122 232.521 625.949 219.781 623.273 214.823C629.684 213.118 635.066 210.912 641.892 210.012Z"/>
</svg>
